<svg xmlns="http://www.w3.org/2000/svg" viewBox="0 0 853.11 746.17"><path class="s" fill="currentColor" d="M442.43 616.81 416.6 572q-27.76-48.24-55.59-96.47-28.64-49.58-57.38-99.1-23.18-40.12-46.25-80.31c-5-8.64-4.27-17.11.65-25.6q23.51-40.54 46.85-81.16 34.66-60 69.37-119.88c10.66-18.44 21.21-36.94 31.87-55.38 3.91-6.76 8.39-12.62 17.08-13.87 7.23-1 15.59 1.49 19.49 7.84 8.06 13.17 15.75 26.56 23.5 39.92q28.87 49.76 57.65 99.61c14.37 24.91 28.57 49.93 42.91 74.85q13.55 23.55 27.33 47c5.3 9 6.18 18.22 1.06 27.24-15.51 27.33-32 54.14-46.85 81.8-8 14.94-30.24 16.56-39.25.19-11.72-21.3-24.23-42.17-36.42-63.21q-22.18-38.26-44.4-76.5c-.42-.73-.91-1.41-1.81-2.82-2.88 4.69-5.52 8.79-7.95 13-5.94 10.3-11.68 20.71-17.74 30.94-1.65 2.78-1.76 4.84-.09 7.7q30.92 53.18 61.6 106.5 28.87 50.08 57.67 100.2 36.17 62.76 72.4 125.49c17.85 30.9 36.1 61.57 53.48 92.73 7.56 13.54 2.08 31.34-18.54 32.41-1.07.06-2.14 0-3.21 0h-395.3c-8 0-15.6-1.29-20.72-8.6-5.7-8.15-5-16.6-.48-24.62 12.34-22 25.08-43.75 37.66-65.6q23.93-41.53 47.89-83.05c4.71-8.14 9.22-16.45 14.52-24.2 8-11.63 26.42-11.43 33.91.52 8.48 13.53 16.18 27.55 24.2 41.36 6.42 11.05 12.77 22.15 19.32 33.13.75 1.27 2.54 2.71 3.87 2.72 17.45.09 34.94.03 53.53.03Z"/><path fill="currentColor" d="M783.1 746.07c-14.26 0-28.54-.29-42.79.08-13.65.36-22.62-5-29.46-17.37-19.37-35.12-39.94-69.59-60-104.35-18.01-31.36-36.01-62.83-54.07-94.17-9.85-17.07-19.63-34.18-29.91-51-7.37-12.06-8-23.49-.64-35.91 15.16-25.47 29.9-51.19 44.49-77 4.47-7.9 10.85-12.56 19.58-12.57 9.15 0 15.62 4.92 20.31 13.16 19 33.49 38.56 66.71 57.81 100.08 10.91 18.91 21.58 38 32.49 56.86 13.92 24.14 28 48.18 42 72.31q29.58 51.18 59 102.45c3.68 6.43 7.88 12.84 10 19.82 4.81 15.79-4.78 27.46-21.16 27.56-15.91.13-31.78.05-47.65.05Zm-713.57-1.01c-15.33 0-30.67.27-46-.15a32.51 32.51 0 0 1-14.24-3.42c-9.43-5.14-12.07-18.64-6.14-29.14 10.64-18.86 21.49-37.6 32.31-56.36q16.38-28.39 32.84-56.67 22-38 44-76.06 22.62-39.23 45.12-78.52c15.24-26.47 30.8-52.75 45.67-79.42 8.29-14.86 30.13-14.81 38.39-.06 15.34 27.42 31.42 54.44 47 81.71 5 8.72 5.53 17.81.35 26.76q-33.59 58.09-67.23 116.15c-11.19 19.36-22.24 38.81-33.39 58.2-16.12 28.17-32.37 56.27-48.49 84.52-5.07 8.89-13 12.31-22.58 12.43-15.87.17-31.74.02-47.61.03Z"/></svg>