<svg height="83px" width="83px" version="1.1" id="_x32_" xmlns="http://www.w3.org/2000/svg" xmlns:xlink="http://www.w3.org/1999/xlink" viewBox="0 0 512 512" xml:space="preserve" fill="#505050"><g id="SVGRepo_bgCarrier" stroke-width="0"></g><g id="SVGRepo_tracerCarrier" stroke-linecap="round" stroke-linejoin="round"></g><g id="SVGRepo_iconCarrier"> <g> <path fill="#823939" d="M511.946,273.041c1.264-27.161-19.761-50.246-46.948-51.505c-13.282-0.634-25.556,4.102-34.803,12.223 c-9.988-10.57-23.898-17.491-39.599-18.211c-19.367-0.89-36.914,7.829-48.14,21.894c23.607,22.108,38.126,53.699,37.282,88.527 c-0.026,0.925-0.159,1.79-0.21,2.69c11.564,20.626,18.049,44.447,17.44,69.819c-0.419,17.629-4.266,34.358-10.72,49.69 c28.532,1.259,52.743-20.815,54.062-49.374c0.052-0.874,0-1.738,0-2.612c24.028-7.589,41.998-29.449,43.206-56.115 c0.398-8.112-0.869-15.94-3.371-23.187C497.958,310.14,510.999,293.325,511.946,273.041z"></path> <path fill="#823939" d="M129.511,320.016c0.827-34.674,16.665-65.365,41.047-86.308c-10.3-14.023-26.716-23.316-45.462-23.796 c-15.701-0.368-30.074,5.533-40.756,15.418c-8.668-8.78-20.579-14.339-33.869-14.647c-27.218-0.668-49.81,20.883-50.456,48.104 c-0.489,20.284,11.345,37.938,28.652,45.947c-3.016,7.033-4.806,14.75-5.007,22.87c-0.63,26.691,15.744,49.768,39.192,59.044 c-0.064,0.865-0.171,1.713-0.196,2.578c-0.673,28.644,21.958,52.38,50.572,53.064c1.383,0.026,2.766-0.025,4.124-0.102 c-5.837-15.761-8.946-32.781-8.523-50.59c0.616-25.371,8.218-48.868,20.759-68.92C129.588,321.781,129.499,320.915,129.511,320.016 z"></path> <path fill="#823939" d="M211.605,372.55c-0.565,23.11,17.877,35.83,40.97,36.387c23.12,0.557,42.118-11.281,42.671-34.383 c0.552-23.102-17.864-35.831-40.983-36.388C231.169,337.619,212.145,349.474,211.605,372.55z"></path> <path fill="#505050" d="M315.901,405.382c-25.53,9.508-38.601,26.896-63.866,26.297c-25.265-0.582-37.492-18.605-62.521-29.303 c-25.03-10.724-44.316,13.354-31.18,34.674c15.833,25.663,35.989,55.857,90.313,57.142c54.341,1.319,79.686-27.821,96.733-52.688 C359.532,420.843,341.402,395.874,315.901,405.382z M322.013,439.5c-1.028,1.19-25.663,29.269-69.571,28.241 c-43.891-1.053-67.168-30.297-68.132-31.539c-1.936-2.468-1.504-6.056,0.989-7.984c2.463-1.918,6.047-1.499,7.983,1.011 c0.198,0.231,21.102,26.211,59.438,27.136c38.336,0.891,60.466-24.06,60.676-24.292c2.056-2.398,5.666-2.638,8.009-0.582 C323.778,433.521,324.039,437.101,322.013,439.5z"></path> <path fill="#505050" d="M184.945,355.479c4.004,0.103,7.641-12.857,8.865-30.22c17.388-0.368,30.507-3.393,30.602-7.401 c0.094-3.974-12.857-7.641-30.208-8.858c-0.394-17.388-3.426-30.511-7.43-30.614c-3.992-0.102-7.641,12.883-8.866,30.22 c-17.388,0.368-30.494,3.426-30.588,7.401c-0.089,4.008,12.857,7.641,30.194,8.883C177.921,342.279,180.94,355.376,184.945,355.479 z"></path> <path fill="#505050" d="M331.945,312.273c-0.394-17.388-3.426-30.511-7.405-30.588c-4.004-0.111-7.666,12.857-8.878,30.22 c-17.388,0.368-30.506,3.417-30.588,7.4c-0.103,4,12.857,7.64,30.194,8.848c0.394,17.389,3.426,30.512,7.43,30.622 c3.98,0.077,7.641-12.857,8.878-30.22c17.363-0.402,30.481-3.4,30.589-7.409C362.242,317.147,349.283,313.481,331.945,312.273z"></path> <path fill="#505050" d="M328.759,216.576L305.914,97.178c0.553,0.026,1.028,0.154,1.58,0.154c21.976,0,39.784-17.808,39.784-39.779 c0-21.972-17.808-39.789-39.784-39.789c-21.97,0-39.796,17.817-39.796,39.789c0,11.666,5.127,22.048,13.136,29.346l-94.112,121.539 L328.759,216.576z"></path> </g> </g></svg>