<svg width="786" height="214" viewBox="0 0 786 214" fill="none" xmlns="http://www.w3.org/2000/svg">
<path d="M152.05 91.325H85.725C84.025 91.325 82.625 92.7 82.625 94.425V126.825C82.625 128.55 84 129.925 85.725 129.925H111.6V170.225C111.6 170.225 105.8 172.175 89.75 172.175C70.8 172.175 44.325 165.225 44.325 107.075C44.325 48.875 71.875 41.225 97.75 41.225C120.15 41.225 129.8 45.15 135.925 47.075C137.85 47.675 139.6 45.75 139.6 44.025L147 12.7C147 11.9 146.725 10.925 145.825 10.275C143.325 8.52501 128.125 0 89.7 0C45.425 0 0 18.825 0 109.375C0 199.925 51.975 213.375 95.8 213.375C132.075 213.375 154.1 197.875 154.1 197.875C155 197.375 155.1 196.125 155.1 195.55V94.425C155.075 92.7 153.7 91.325 152 91.325H152.05ZM487.425 7.725H450.1C448.375 7.725 447 9.12501 447 10.825V82.975H388.8V10.825C388.8 9.10001 387.4 7.725 385.725 7.725H348.375C346.7 7.725 345.325 9.12501 345.325 10.825V206.175C345.325 207.9 346.7 209.3 348.375 209.3H385.725C387.425 209.3 388.8 207.9 388.8 206.175V122.625H447L446.875 206.175C446.875 207.9 448.25 209.275 449.925 209.275H487.275C489 209.275 490.325 207.875 490.325 206.175L490.45 10.8C490.475 9.075 489.075 7.70001 487.4 7.70001L487.425 7.725ZM196.65 12.15C183.35 12.15 172.575 23.025 172.575 36.45C172.575 49.875 183.35 60.775 196.65 60.775C209.95 60.775 220.725 49.9 220.725 36.45C220.725 23.025 209.95 12.15 196.65 12.15ZM218.075 74.825C218.075 73.125 216.7 71.7 215.025 71.7H177.8C176.05 71.7 174.575 73.45 174.575 75.175C174.575 75.175 174.575 183.7 174.575 204.375C174.575 208.15 176.925 209.3 180 209.3C180 209.3 195.875 209.3 213.55 209.3C217.2 209.3 218.175 207.5 218.175 204.3C218.15 197.375 218.15 170.25 218.15 165C218.125 160 218.125 74.825 218.125 74.825H218.075ZM631.95 72H594.9C593.2 72 591.85 73.4 591.85 75.125V170.9C591.85 170.9 582.45 177.825 569.05 177.825C555.7 177.825 552.125 171.775 552.125 158.65C552.125 145.575 552.125 75.1 552.125 75.1C552.125 73.375 550.725 71.975 549.05 71.975H511.475C509.75 71.975 508.4 73.375 508.4 75.1C508.4 75.1 508.4 126.1 508.4 164.975C508.4 203.85 530.05 213.35 559.825 213.35C584.25 213.35 604 199.85 604 199.85C604 199.85 604.925 206.95 605.375 207.775C605.775 208.625 606.875 209.475 608.075 209.475H631.875C633.575 209.475 634.95 208.075 634.95 206.35L635.05 75.1C634.975 73.4 633.575 72 631.9 72H631.95ZM733.4 67.6C712.35 67.6 698.05 77 698.05 77V10.85C698.05 9.125 696.65 7.75001 695 7.75001H657.525C655.85 7.75001 654.475 9.15 654.475 10.85L654.375 206.225C654.375 207.95 655.775 209.325 657.45 209.325C657.45 209.325 683.525 209.325 683.55 209.325C684.7 209.325 685.575 208.725 686.25 207.675C686.925 206.625 687.825 198.65 687.825 198.65C687.825 198.65 703.1 213.175 732.1 213.175C766.15 213.175 785.65 195.9 785.65 135.65C785.65 75.475 754.45 67.6 733.4 67.6ZM718.8 177.7C705.95 177.3 697.25 171.475 697.25 171.475V109.575C697.25 109.575 705.85 104.3 716.425 103.35C729.775 102.175 742.675 106.2 742.675 138.025C742.6 171.575 736.8 178.2 718.825 177.675L718.8 177.7ZM325.95 176.975C324.3 176.975 320.125 177.625 315.825 177.625C302.1 177.625 297.4 171.225 297.4 162.95C297.4 154.65 297.4 108 297.4 108H325.425C327.15 108 328.5 106.625 328.5 104.875V74.775C328.525 73.05 327.15 71.65 325.425 71.65H297.4L297.35 34.65C297.35 33.25 296.6 32.55 295 32.55H256.85C255.375 32.55 254.55 33.2 254.55 34.625V72.85C254.55 72.85 235.425 77.475 234.125 77.85C232.825 78.225 231.925 79.425 231.925 80.825V104.875C231.925 106.6 233.325 108 235 108H254.55C254.55 108 254.55 133.125 254.55 165.8C254.55 208.725 284.675 212.95 305 212.95C314.275 212.95 325.375 209.925 327.225 209.275C328.35 208.875 328.975 207.725 328.975 206.5L329 180.075C329 178.35 327.55 176.975 325.95 176.975Z" fill="currentColor"/>
</svg>
