<svg fill="none" xmlns="http://www.w3.org/2000/svg" viewBox="0 0 671 92"><path d="M107.995 13V0h26.08v13c0 5.185 2.06 10.1576 5.726 13.8239 3.666 3.6664 8.639 5.7261 13.824 5.7261 5.185 0 10.158-2.0597 13.824-5.7261 3.666-3.6663 5.726-8.6389 5.726-13.8239V0h26.07v13c.092 6.0043-1.045 11.9639-3.343 17.512-2.298 5.548-5.707 10.5671-10.017 14.748-5.31 5.4454-11.927 9.439-19.22 11.6V91.2h-26.09V56.86c-7.293-2.1605-13.91-6.1543-19.22-11.6-4.31-4.1809-7.719-9.2-10.017-14.748-2.298-5.5481-3.435-11.5077-3.343-17.512ZM517.385 0h45.61v26.07h-45.61c-5.183.0079-10.151 2.0703-13.815 5.7349-3.665 3.6646-5.727 8.6326-5.735 13.8152v45.62h-26.06v-45.62c0-5.9905 1.18-11.9223 3.473-17.4566 2.293-5.5343 5.653-10.5627 9.889-14.7981 4.237-4.23545 9.266-7.59487 14.801-9.8864S511.405.0086964 517.395.0100098L517.385 0Zm0 32.58h45.61v26.07h-58.64v-13c0-3.4478 1.37-6.7544 3.808-9.1924 2.438-2.4379 5.744-3.8076 9.192-3.8076l.03-.07ZM455.775 91.23h-26.07V0h26.07v91.23ZM368.095 0h45.61v26.07h-45.61c-5.185 0-10.158 2.0597-13.824 5.7261-3.666 3.6663-5.726 8.639-5.726 13.824 0 5.1849 2.06 10.1575 5.726 13.8239 3.666 3.6663 8.639 5.726 13.824 5.726h45.61v26.0701h-45.61c-12.098 0-23.7-4.8059-32.255-13.3604-8.554-8.5545-13.36-20.1569-13.36-32.2547s4.806-23.7002 13.36-32.2546C344.395 4.81589 355.997.0100098 368.095.0100098V0ZM306.48 45.6151v45.62h-26.07v-45.62c0-5.185-2.06-10.1577-5.726-13.824-3.666-3.6664-8.639-5.7261-13.824-5.7261-5.185 0-10.158 2.0597-13.824 5.7261-3.666 3.6663-5.726 8.639-5.726 13.824v45.62h-26.06v-45.62c0-12.0979 4.806-23.7003 13.36-32.2547C237.165 4.80588 248.767 0 260.865 0c12.098 0 23.7 4.80588 32.255 13.3604 8.554 8.5544 13.36 20.1568 13.36 32.2547ZM579.002 13V0h26.07v13c0 5.185 2.06 10.1576 5.726 13.8239 3.666 3.6664 8.639 5.7261 13.824 5.7261 5.185 0 10.158-2.0597 13.824-5.7261 3.666-3.6663 5.726-8.6389 5.726-13.8239V0h26.07v13c.087 6.0072-1.057 11.9686-3.361 17.5168-2.305 5.5482-5.721 10.5657-10.039 14.7432-5.31 5.4454-11.927 9.439-19.22 11.6V91.2h-26.07V56.86c-7.293-2.161-13.91-6.1546-19.22-11.6-4.305-4.1835-7.708-9.2037-10.001-14.7516-2.292-5.5479-3.425-11.5062-3.329-17.5084Z" fill="currentColor"/><path d="M46.3599 0h45.62v26.07h-45.62c-5.1825.0079-10.1505 2.0703-13.8151 5.7349-3.6647 3.6646-5.7269 8.6326-5.7349 13.8152-.0768 4.8168 1.7153 9.4761 5 13H2.45993c-1.19152-4.2298-1.783963-8.6057-1.760013-13 0-5.9896 1.179743-11.9206 3.471863-17.4543 2.29212-5.5336 5.65171-10.5616 9.88702-14.7969 4.2353-4.23528 9.2633-7.59491 14.7969-9.88703C34.3894 1.18976 40.3203.0100098 46.3099.0100098L46.3599 0Zm0 91.23H.749935V65.17H46.3599c5.1826-.0079 10.1506-2.0702 13.8152-5.7348s5.7269-8.6326 5.7348-13.8151c.0769-4.8169-1.7152-9.4762-5-13h29.32c1.1916 4.2297 1.784 8.6057 1.7601 13 .0013 5.9912-1.1779 11.924-3.47 17.4595-2.2922 5.5355-5.6525 10.5651-9.8889 14.8016-4.2365 4.2364-9.2661 7.5967-14.8016 9.8889-5.5355 2.2921-11.4683 3.4713-17.4596 3.47l-.01-.0101Z" fill="currentColor"/></svg>