<svg xmlns="http://www.w3.org/2000/svg" fill="currentColor" viewBox="0 0 627 92"><path d="M46.3599.0625h45.62v26.07h-45.62c-5.1825.0079-10.1505 2.0703-13.8151 5.7349S26.8179 40.5 26.8099 45.6826c-.0768 4.8168 1.7153 9.4761 5 13H2.45993c-1.19152-4.2298-1.783963-8.6057-1.760013-13 0-5.9896 1.179743-11.9206 3.471863-17.4543s5.65171-10.5616 9.88702-14.7969 9.2633-7.59491 14.7969-9.88703S40.3203.0725098 46.3099.0725098l.05-.0100098zm0 91.23H.749935v-26.06H46.3599c5.1826-.0079 10.1506-2.0702 13.8152-5.7348s5.7269-8.6326 5.7348-13.8151c.0769-4.8169-1.7152-9.4762-5-13h29.32c1.1916 4.2297 1.784 8.6057 1.7601 13 .0013 5.9912-1.1779 11.924-3.47 17.4595s-5.6525 10.5651-9.8889 14.8016-9.2661 7.5967-14.8016 9.8889-11.4683 3.4713-17.4596 3.47l-.01-.0101zm54.0201-78.2V.0925293h26.08V13.0925c0 5.185 2.06 10.1576 5.726 13.8239s8.639 5.7261 13.824 5.7261 10.158-2.0597 13.824-5.7261 5.726-8.6389 5.726-13.8239V.0925293h26.07V13.0925c.092 6.0043-1.045 11.9639-3.343 17.512s-5.707 10.5671-10.017 14.748c-5.31 5.4454-11.927 9.439-19.22 11.6v34.34h-26.09v-34.34c-7.293-2.1605-13.91-6.1543-19.22-11.6-4.31-4.1809-7.719-9.2-10.017-14.748s-3.435-11.5077-3.343-17.512zm184.03 32.5901v45.62h-26.07v-45.62c0-5.185-2.06-10.1577-5.726-13.824s-8.639-5.7261-13.824-5.7261-10.158 2.0597-13.824 5.7261-5.726 8.639-5.726 13.824v45.62h-26.06v-45.62c0-12.0979 4.806-23.7003 13.36-32.2547S226.697.0675049 238.795.0675049 262.495 4.87338 271.05 13.4279s13.36 20.1568 13.36 32.2547zM338.23.0625h45.61v26.07h-45.61c-5.185 0-10.158 2.0597-13.824 5.7261s-5.726 8.639-5.726 13.824 2.06 10.1575 5.726 13.8239 8.639 5.726 13.824 5.726h45.61v26.0701h-45.61c-12.098 0-23.7-4.8059-32.255-13.3604s-13.36-20.1569-13.36-32.2547 4.806-23.7002 13.36-32.2546S326.132.0725098 338.23.0725098V.0625zm84.72 91.23h-26.07V.0625h26.07v91.23zm58.64-91.23h45.61v26.07h-45.61c-5.183.0079-10.151 2.0703-13.815 5.7349s-5.727 8.6326-5.735 13.8152v45.62h-26.06v-45.62c0-5.9905 1.18-11.9223 3.473-17.4566s5.653-10.5627 9.889-14.7981 9.266-7.59487 14.801-9.8864S475.61.0711964 481.6.0725098L481.59.0625zm0 32.58h45.61v26.07h-58.64v-13c0-3.4478 1.37-6.7544 3.808-9.1924s5.744-3.8076 9.192-3.8076l.03-.07zm54.03-19.55V.0925293h26.07V13.0925c0 5.185 2.06 10.1576 5.726 13.8239s8.639 5.7261 13.824 5.7261 10.158-2.0597 13.824-5.7261 5.726-8.6389 5.726-13.8239V.0925293h26.07V13.0925c.087 6.0072-1.057 11.9686-3.361 17.5168s-5.721 10.5657-10.039 14.7432c-5.31 5.4454-11.927 9.439-19.22 11.6v34.34h-26.07v-34.34c-7.293-2.161-13.91-6.1546-19.22-11.6-4.305-4.1835-7.708-9.2037-10.001-14.7516s-3.425-11.5062-3.329-17.5084z" /></svg>