<svg xmlns="http://www.w3.org/2000/svg" fill="none" viewBox="0 0 875 963"><path fill="#e5e5e5" d="M442.43 616.81 416.6 572c-18.507-32.16-37.037-64.317-55.59-96.47-19.093-33.053-38.22-66.087-57.38-99.1-15.453-26.747-30.87-53.517-46.25-80.31-5-8.64-4.27-17.11.65-25.6 15.673-27.027 31.29-54.08 46.85-81.16 23.107-40 46.23-79.96 69.37-119.8801 10.66-18.44 21.21-36.94 31.87-55.38 3.91-6.75996 8.39-12.61996 17.08-13.869963 7.23-1 15.59 1.490003 19.49 7.840003 8.06 13.16996 15.75 26.55996 23.5 39.91996 19.247 33.1734 38.463 66.3771 57.65 99.6101 14.37 24.91 28.57 49.93 42.91 74.85 9.033 15.7 18.143 31.367 27.33 47 5.3 9 6.18 18.22 1.06 27.24-15.51 27.33-32 54.14-46.85 81.8-8 14.94-30.24 16.56-39.25.19-11.72-21.3-24.23-42.17-36.42-63.21-14.787-25.507-29.587-51.007-44.4-76.5-.42-.73-.91-1.41-1.81-2.82-2.88 4.69-5.52 8.79-7.95 13-5.94 10.3-11.68 20.71-17.74 30.94-1.65 2.78-1.76 4.84-.09 7.7 20.613 35.453 41.147 70.953 61.6 106.5 19.247 33.387 38.47 66.787 57.67 100.2 24.113 41.84 48.247 83.67 72.4 125.49 17.85 30.9 36.1 61.57 53.48 92.73 7.56 13.54 2.08 31.34-18.54 32.41-1.07.06-2.14 0-3.21 0h-395.3c-8 0-15.6-1.29-20.72-8.6-5.7-8.15-5-16.6-.48-24.62 12.34-22 25.08-43.75 37.66-65.6 15.953-27.687 31.917-55.37 47.89-83.05 4.71-8.14 9.22-16.45 14.52-24.2 8-11.63 26.42-11.43 33.91.52 8.48 13.53 16.18 27.55 24.2 41.36 6.42 11.05 12.77 22.15 19.32 33.13.75 1.27 2.54 2.71 3.87 2.72 17.45.09 34.94.03 53.53.03Z"/><path fill="#ddd" d="M783.1 746.07c-14.26 0-28.54-.29-42.79.08-13.65.36-22.62-5-29.46-17.37-19.37-35.12-39.94-69.59-60-104.35-18.01-31.36-36.01-62.83-54.07-94.17-9.85-17.07-19.63-34.18-29.91-51-7.37-12.06-8-23.49-.64-35.91 15.16-25.47 29.9-51.19 44.49-77 4.47-7.9 10.85-12.56 19.58-12.57 9.15 0 15.62 4.92 20.31 13.16 19 33.49 38.56 66.71 57.81 100.08 10.91 18.91 21.58 38 32.49 56.86 13.92 24.14 28 48.18 42 72.31 19.72 34.12 39.387 68.27 59 102.45 3.68 6.43 7.88 12.84 10 19.82 4.81 15.79-4.78 27.46-21.16 27.56-15.91.13-31.78.05-47.65.05Zm-713.57-1.01c-15.33 0-30.67.27-46-.15-4.945-.042-9.8152-1.212-14.24-3.42-9.429999-5.14-12.07-18.64-6.14-29.14 10.64-18.86 21.49-37.6 32.31-56.36 10.92-18.927 21.8667-37.817 32.84-56.67 14.6667-25.333 29.3333-50.687 44-76.06 15.08-26.153 30.12-52.327 45.12-78.52 15.24-26.47 30.8-52.75 45.67-79.42 8.29-14.86 30.13-14.81 38.39-.06 15.34 27.42 31.42 54.44 47 81.71 5 8.72 5.53 17.81.35 26.76-22.393 38.727-44.803 77.443-67.23 116.15-11.19 19.36-22.24 38.81-33.39 58.2-16.12 28.17-32.37 56.27-48.49 84.52-5.07 8.89-13 12.31-22.58 12.43-15.87.17-31.74.02-47.61.03Z"/><path fill="#ccc" d="M40.5772 963c-8.2331 0-15.3969-1.398-21.4915-4.195-6.0946-2.796-10.79919-6.722-14.1138-11.777C1.6573 941.973 7.9e-7 936.003 7.9e-7 929.12H24.0576c0 3.979 1.4969 7.152 4.4908 9.519 3.1007 2.258 7.2707 3.388 12.5099 3.388 5.0254 0 8.9281-1.13 11.708-3.388 2.887-2.259 4.3304-5.378 4.3304-9.358 0-3.442-1.0692-6.399-3.2077-8.873-2.1384-2.474-5.1323-4.141-8.9815-5.001l-11.8684-2.743c-9.9438-2.366-17.6957-6.722-23.25567-13.068-5.45306-6.453-8.17959-14.305-8.17959-23.555 0-6.883 1.55038-12.853 4.65114-17.908 3.20768-5.162 7.69842-9.142 13.47222-11.938C25.5011 843.398 32.3441 842 40.2564 842c11.9753 0 21.438 3.011 28.388 9.035 7.0569 5.915 10.5853 13.928 10.5853 24.038H55.1721c0-3.764-1.3365-6.722-4.0096-8.873-2.5661-2.151-6.3084-3.227-11.2269-3.227-4.5977 0-8.1261 1.076-10.5853 3.227-2.4592 2.044-3.6889 5.001-3.6889 8.873 0 3.442.9623 6.4 2.887 8.874 2.0315 2.366 4.8649 3.979 8.5003 4.84l12.51 2.904c10.3715 2.366 18.2303 6.668 23.5764 12.906 5.3462 6.131 8.0192 13.982 8.0192 23.555 0 6.883-1.7108 12.96-5.1323 18.231-3.3146 5.27-8.0192 9.357-14.1138 12.261-5.9876 2.904-13.098 4.356-21.331 4.356Zm119.4238-1.613V919.44l-33.681-75.827h25.18l14.756 35.494c1.496 3.549 2.78 7.313 3.849 11.293 1.176 3.979 1.978 7.206 2.406 9.68.534-2.474 1.283-5.701 2.245-9.68 1.069-3.98 2.299-7.744 3.689-11.293l14.274-35.494h25.02l-33.681 75.827v41.947h-24.057Zm104.988 0V843.613h28.068l30.312 91.154c-.321-3.98-.695-8.551-1.122-13.714-.428-5.27-.802-10.486-1.123-15.649-.214-5.27-.321-9.734-.321-13.391v-48.4h21.171v117.774h-28.067l-29.992-91.154c.321 3.442.641 7.529.962 12.262.321 4.732.588 9.518.802 14.358.321 4.84.481 9.143.481 12.907v51.627h-21.171ZM435.575 963c-7.805 0-14.648-1.452-20.529-4.356-5.88-3.012-10.478-7.153-13.793-12.423-3.207-5.378-4.811-11.616-4.811-18.714v-50.014c0-7.206 1.604-13.444 4.811-18.714 3.315-5.271 7.913-9.358 13.793-12.262 5.881-3.011 12.724-4.517 20.529-4.517 7.913 0 14.756 1.506 20.53 4.517 5.88 2.904 10.424 6.991 13.632 12.262 3.315 5.27 4.972 11.508 4.972 18.714h-24.058c0-4.732-1.336-8.335-4.009-10.809-2.566-2.474-6.255-3.711-11.067-3.711-4.811 0-8.553 1.237-11.226 3.711-2.567 2.474-3.85 6.077-3.85 10.809v50.014c0 4.624 1.283 8.228 3.85 10.809 2.673 2.474 6.415 3.711 11.226 3.711 4.812 0 8.501-1.237 11.067-3.711 2.673-2.581 4.009-6.185 4.009-10.809h24.058c0 7.098-1.657 13.336-4.972 18.714-3.208 5.27-7.752 9.411-13.632 12.423-5.774 2.904-12.617 4.356-20.53 4.356Zm95.527-1.613v-20.974h23.255v-75.826h-23.255v-20.974h70.569v20.974h-23.256v75.826h23.256v20.974h-70.569Zm129.848 0V843.613h75.38V866.2h-51.643v26.136h47.474v22.587h-47.153v46.464H660.95Zm156.312 0V919.44l-33.681-75.827h25.18l14.756 35.494c1.497 3.549 2.78 7.313 3.849 11.293 1.176 3.979 1.978 7.206 2.406 9.68.534-2.474 1.283-5.701 2.245-9.68 1.069-3.98 2.299-7.744 3.689-11.293l14.274-35.494H875l-33.681 75.827v41.947h-24.057Z"/></svg>