<svg fill="currentColor" xmlns="http://www.w3.org/2000/svg" viewBox="0 0 92 92"><path d="M45.6607 0h45.62v26.07h-45.62c-5.1825.0079-10.1505 2.0703-13.8151 5.7349-3.6647 3.6646-5.7269 8.6326-5.7349 13.8152-.0768 4.8168 1.7153 9.4761 5 13H1.76071c-1.191519-4.2298-1.7839619-8.6057-1.76001194-13 0-5.9896 1.17974194-11.9206 3.47186194-17.4543 2.29212-5.5336 5.65171-10.5616 9.88704-14.7969 4.2353-4.23528 9.2633-7.59491 14.7969-9.88703C33.6902 1.18976 39.6211.0100098 45.6107.0100098L45.6607 0Zm0 91.23H.050716V65.17H45.6607c5.1826-.0079 10.1506-2.0702 13.8152-5.7348s5.7269-8.6326 5.7348-13.8151c.0769-4.8169-1.7152-9.4762-5-13h29.32c1.1916 4.2297 1.784 8.6057 1.7601 13 .0013 5.9912-1.1779 11.924-3.47 17.4595-2.2922 5.5355-5.6525 10.5651-9.8889 14.8016-4.2365 4.2364-9.2661 7.5967-14.8016 9.8889-5.5355 2.2921-11.4683 3.4713-17.4596 3.47l-.01-.0101Z" fill="#000"/></svg>